<svg width="22" height="22" viewBox="0 0 22 22" fill="none" xmlns="http://www.w3.org/2000/svg">
<path d="M2.16992 6.44006L10.9999 11.55L19.7699 6.47003" stroke="#B7B0B0" stroke-width="1.5" stroke-linecap="round" stroke-linejoin="round"/>
<path d="M11 20.61V11.54" stroke="#B7B0B0" stroke-width="1.5" stroke-linecap="round" stroke-linejoin="round"/>
<path d="M1.39014 8.17007C1.39014 6.79007 2.38012 5.11009 3.59012 4.44009L8.93011 1.47006C10.0701 0.840059 11.9401 0.840059 13.0801 1.47006L18.4201 4.44009C19.6301 5.11009 20.6201 6.79007 20.6201 8.17007V13.8201C20.6201 15.2001 19.6301 16.8801 18.4201 17.5501L13.0801 20.5201C11.9401 21.1501 10.0701 21.1501 8.93011 20.5201L3.59012 17.5501C2.38012 16.8801 1.39014 15.2001 1.39014 13.8201V13.0001" stroke="#B7B0B0" stroke-width="1.5" stroke-linecap="round" stroke-linejoin="round"/>
<path d="M15.9998 12.24V8.58002L9.92975 5.07001L8.87976 4.46997L6.50977 3.09998" stroke="#B7B0B0" stroke-width="1.5" stroke-linecap="round" stroke-linejoin="round"/>
</svg>
